<?xml version="1.0" standalone="no"?>
<!DOCTYPE svg PUBLIC "-//W3C//DTD SVG 20010904//EN"
 "http://www.w3.org/TR/2001/REC-SVG-20010904/DTD/svg10.dtd">
<svg version="1.0" xmlns="http://www.w3.org/2000/svg"
 width="299.000000pt" height="168.000000pt" viewBox="0 0 299.000000 168.000000"
 preserveAspectRatio="xMidYMid meet">

<g transform="translate(0.000000,168.000000) scale(0.100000,-0.100000)"
fill="#000000" stroke="none">
<path d="M2 1338 l3 -343 30 3 c16 2 32 7 35 11 3 5 15 11 28 15 12 4 22 12
22 17 0 6 8 9 17 8 38 -3 64 1 58 11 -3 6 3 10 14 10 12 0 21 7 21 15 0 8 -8
15 -17 15 -10 0 -29 9 -42 19 -31 24 -22 49 21 58 27 5 29 7 13 14 -18 7 -18
8 3 8 27 1 78 -23 110 -52 22 -21 30 -47 13 -47 -5 0 -8 -11 -6 -25 1 -15 -3
-25 -10 -25 -7 0 -15 -7 -19 -15 -3 -8 -13 -15 -23 -15 -16 -1 -15 -3 4 -19
12 -10 18 -22 14 -27 -4 -5 -12 -21 -18 -35 -9 -20 -8 -26 3 -26 7 0 16 13 19
29 8 33 20 37 28 8 3 -13 0 -20 -9 -20 -8 0 -14 -3 -14 -7 0 -9 43 -9 86 1 19
4 40 2 59 -8 28 -15 28 -15 -40 -18 l-69 -3 29 -19 c22 -15 32 -16 47 -7 26
16 45 14 60 -7 14 -20 68 -38 68 -23 0 5 -9 11 -20 14 -35 9 -22 25 31 38 35
9 45 15 33 19 -16 6 -16 7 2 12 28 7 31 -39 4 -64 -11 -11 -18 -23 -15 -29 7
-11 32 -12 38 -1 2 4 2 1 1 -6 -4 -16 17 -62 28 -62 5 0 7 4 3 9 -3 5 -1 12 5
16 5 3 10 0 10 -8 0 -11 21 -13 104 -10 99 3 145 -8 92 -21 -18 -4 -25 -14
-28 -39 -3 -31 -2 -33 25 -29 24 4 28 8 23 27 -5 19 -2 22 18 22 18 0 23 -4
18 -16 -5 -14 -3 -14 11 -3 9 8 22 12 29 10 7 -3 -25 -23 -72 -46 -47 -22
-234 -114 -416 -205 -183 -90 -352 -172 -375 -183 -24 -10 -47 -20 -51 -22 -8
-4 -4 46 5 55 11 10 8 35 -3 28 -6 -3 -10 1 -10 9 0 12 -19 25 -20 14 -1 -2
-3 -85 -7 -185 l-6 -183 570 0 c313 0 573 3 577 7 10 10 86 10 86 1 0 -5 396
-8 880 -8 l880 0 0 150 c0 113 -3 150 -12 150 -9 0 -9 3 -2 8 6 4 12 30 13 59
2 42 -1 52 -16 56 -16 4 -16 5 -1 6 17 1 18 41 18 626 l0 625 -1495 0 -1495 0
2 -342z m2584 265 c-2 -10 -8 -51 -11 -91 l-7 -73 -42 6 c-22 4 -41 8 -41 9 0
0 -6 11 -13 24 -7 12 -8 22 -2 22 5 0 7 13 4 30 -4 18 -1 36 6 45 14 17 75 21
65 5 -3 -5 -2 -10 3 -10 6 0 13 11 16 25 4 14 11 25 17 25 6 0 8 -8 5 -17z
m120 -90 c-2 -18 -1 -35 3 -37 4 -3 7 -35 7 -71 -1 -37 3 -65 9 -65 14 -1 -37
-29 -52 -30 -9 0 -11 16 -6 60 3 36 2 60 -4 60 -6 0 -7 20 -2 53 4 28 8 60 8
70 1 15 4 15 22 5 16 -10 19 -20 15 -45z m-879 31 c-3 -3 -12 -4 -19 -1 -8 3
-5 6 6 6 11 1 17 -2 13 -5z m40 -10 c-3 -3 -12 -4 -19 -1 -8 3 -5 6 6 6 11 1
17 -2 13 -5z m-12 -24 c4 -6 2 -17 -4 -24 -7 -8 -10 -18 -9 -24 2 -5 -1 -12
-6 -13 -11 -5 -17 29 -10 54 6 19 20 22 29 7z m473 -27 c-10 -2 -28 -2 -40 0
-13 2 -5 4 17 4 22 1 32 -1 23 -4z m-1493 -23 c3 -5 -3 -10 -14 -10 -12 0 -21
5 -21 10 0 6 6 10 14 10 8 0 18 -4 21 -10z m928 -77 c4 -3 -14 -30 -39 -60
-26 -30 -44 -57 -40 -60 3 -4 6 -1 6 5 0 7 8 12 18 12 11 0 -1 -17 -38 -49
-30 -27 -57 -48 -61 -45 -4 2 -10 -3 -13 -12 -3 -8 -11 -12 -17 -8 -8 4 -9 3
-5 -4 4 -7 1 -12 -6 -12 -11 0 -98 -75 -98 -84 0 -3 6 -3 14 -2 16 2 39 24 55
54 6 12 16 22 22 22 6 0 7 -4 4 -10 -3 -5 -1 -10 5 -10 7 0 -12 -20 -40 -44
-29 -25 -58 -42 -65 -40 -7 3 -16 1 -19 -4 -3 -5 11 -14 30 -20 20 -6 34 -8
31 -5 -7 6 34 41 88 74 27 16 56 24 88 25 l49 0 -29 -14 c-15 -8 -35 -21 -45
-29 -11 -10 -18 -11 -23 -4 -3 6 -2 11 2 11 5 0 18 7 29 15 13 10 14 14 4 13
-16 -3 -46 -28 -44 -37 3 -13 -37 -32 -55 -26 -12 3 -21 0 -25 -10 -5 -13 2
-15 39 -13 25 2 47 8 49 13 2 6 39 25 82 44 44 18 126 56 184 84 221 106 365
167 392 165 14 -1 24 -6 21 -11 -3 -4 -12 -6 -20 -3 -8 3 -11 1 -8 -4 3 -6 1
-10 -6 -10 -7 0 -10 -3 -7 -6 4 -3 16 -1 27 6 13 6 41 8 72 4 49 -7 50 -8 28
-20 -13 -7 -27 -10 -31 -8 -4 3 -92 -27 -195 -65 -238 -88 -238 -88 -230 -67
8 21 -9 20 -53 -4 -32 -17 -33 -19 -11 -20 13 0 22 -2 19 -5 -14 -15 -207 -82
-210 -73 -4 12 -38 -1 -38 -16 0 -19 -43 -32 -80 -25 -19 4 -42 3 -52 -2 -10
-6 -24 -7 -30 -3 -7 4 -8 3 -4 -4 12 -20 -9 -13 -24 8 -8 11 -22 20 -31 20
-15 0 -15 4 -2 41 7 23 20 51 28 63 l15 20 0 -22 c0 -21 1 -21 21 -4 12 9 29
30 39 45 20 33 107 134 166 195 41 41 54 48 67 35z m37 -28 c-12 -13 -27 -22
-33 -18 -6 4 -7 1 -2 -7 5 -9 4 -11 -3 -6 -18 11 -14 20 16 38 39 25 49 22 22
-7z m100 2 c0 -5 -7 -6 -16 -3 -16 6 -100 -51 -90 -62 9 -8 -15 -32 -25 -26
-5 3 -38 -18 -72 -47 -34 -29 -73 -62 -87 -73 l-25 -21 25 29 c14 16 46 49 72
74 26 24 46 47 43 51 -6 11 10 32 27 35 8 1 30 14 48 29 23 20 41 27 66 25 19
-1 34 -6 34 -11z m157 -13 c51 -3 90 -10 87 -15 -2 -5 -53 -34 -112 -65 -59
-31 -145 -77 -192 -102 -55 -29 -79 -38 -67 -25 9 11 43 33 75 48 62 32 108
63 105 73 -1 4 5 6 12 4 8 -1 32 10 55 27 l40 29 -26 6 c-19 5 -33 2 -48 -12
-11 -11 -57 -43 -101 -72 -44 -29 -79 -57 -77 -62 2 -6 -4 -8 -13 -4 -9 3 -13
2 -10 -4 3 -5 -7 -12 -22 -16 -15 -4 -36 -15 -46 -26 -19 -19 -40 -16 -31 5 2
7 41 36 85 65 62 41 79 57 74 70 -5 13 -3 14 6 5 9 -9 19 -7 43 10 43 31 59
47 47 47 -6 0 -11 7 -11 16 0 10 6 14 18 10 9 -3 59 -8 109 -12z m-1118 -8
c14 -17 0 -29 -23 -20 -17 7 -20 16 -9 27 10 11 19 8 32 -7z m1281 -11 c0 -6
-56 -35 -67 -35 -4 1 8 9 27 20 39 22 40 22 40 15z m-190 -9 c0 -3 -15 -14
-32 -26 l-33 -22 30 26 c31 27 35 29 35 22z m585 -35 c21 -8 14 -10 -240 -85
-66 -19 -173 -51 -238 -71 -65 -19 -141 -40 -168 -46 -27 -6 -49 -15 -49 -20
0 -6 -4 -7 -10 -4 -5 3 -10 1 -10 -5 0 -7 -7 -10 -15 -6 -8 3 -15 1 -15 -5 0
-6 -4 -7 -10 -4 -5 3 -28 0 -50 -6 -23 -7 -36 -15 -29 -19 8 -6 8 -9 -1 -15
-7 -4 -16 -1 -21 6 -6 10 -9 8 -9 -8 0 -27 -26 -31 -34 -5 -2 9 -4 1 -3 -18 2
-29 6 -35 22 -33 11 1 14 0 6 -4 -11 -4 -11 -7 0 -15 10 -6 7 -7 -8 -3 -19 5
-23 2 -23 -14 0 -14 5 -19 15 -15 18 7 20 -21 4 -63 -7 -19 -7 -29 0 -31 6 -2
11 -7 11 -12 0 -4 -21 -6 -47 -3 -53 5 -71 13 -30 13 24 0 25 2 20 36 -4 25
-2 39 8 45 10 6 7 9 -11 9 -28 1 -60 21 -60 39 0 17 -18 13 -40 -9 -11 -11
-24 -20 -30 -20 -5 0 -10 -5 -10 -10 0 -6 -8 -10 -17 -8 -13 2 -19 -5 -21 -25
-3 -26 -2 -28 17 -17 18 9 21 8 21 -10 0 -17 -6 -20 -50 -20 -41 0 -50 -3 -50
-17 0 -13 -3 -14 -8 -6 -6 9 -15 6 -35 -13 -35 -32 -34 -50 3 -69 17 -9 30
-19 30 -24 0 -7 43 -31 55 -31 3 0 5 8 5 18 0 14 -2 15 -10 2 -9 -14 -14 -7
-11 13 1 5 -3 6 -8 2 -6 -3 -19 3 -31 15 -21 21 -26 40 -10 40 6 0 10 6 10 14
0 10 7 12 22 8 21 -5 21 -6 2 -13 -10 -4 23 -7 73 -6 67 1 93 6 93 15 0 6 5
12 10 12 6 0 10 -6 10 -14 0 -9 18 -16 55 -21 103 -12 197 43 209 124 8 51 22
81 39 81 7 0 21 14 32 30 19 29 35 39 35 22 0 -4 15 -13 34 -20 18 -7 40 -20
49 -30 16 -18 32 -107 18 -98 -5 3 -11 -3 -14 -14 -3 -11 -1 -22 3 -25 18 -11
5 -46 -21 -57 -15 -7 -26 -15 -23 -19 2 -4 -7 -10 -20 -13 -18 -4 -23 -11 -19
-25 5 -19 31 -36 41 -26 3 2 -2 7 -11 11 -15 5 -15 7 0 22 9 10 30 22 47 27
20 7 30 17 30 28 -1 9 2 17 8 17 5 0 18 21 29 48 13 31 32 55 56 71 35 22 36
24 18 37 -10 8 -25 14 -32 14 -17 0 -33 63 -19 72 20 14 56 9 56 -7 0 -8 5
-15 10 -15 6 0 10 -7 10 -16 0 -9 5 -12 12 -8 8 5 9 2 5 -9 -7 -20 -6 -20 28
-7 32 12 55 2 34 -14 -8 -6 -21 -20 -29 -31 -13 -17 -11 -17 14 3 16 12 37 22
47 22 46 0 138 -92 110 -109 -7 -5 -8 -17 -2 -38 5 -17 7 -34 4 -36 -9 -10 18
-47 35 -47 10 0 13 -3 7 -8 -5 -4 -11 -22 -12 -41 -3 -35 -46 -84 -68 -77 -5
2 -21 -5 -34 -15 -24 -19 -87 -27 -77 -10 7 10 -22 25 -42 22 -8 -1 -20 3 -27
9 -8 7 -19 9 -24 6 -5 -4 -12 -2 -16 4 -7 11 -57 2 -66 -13 -4 -5 -20 -10 -36
-11 -16 -2 -35 -6 -40 -9 -7 -5 -9 0 -6 13 3 12 0 20 -6 20 -7 0 -9 -4 -6 -10
3 -5 1 -10 -5 -10 -6 0 -8 -5 -4 -12 5 -7 3 -8 -7 -2 -22 14 -37 13 -43 -2 -4
-11 -10 -11 -33 1 -39 20 -47 0 -21 -47 20 -35 30 -43 51 -39 5 1 6 -3 2 -8
-3 -6 -13 -7 -23 -4 -12 4 -14 3 -7 -5 15 -15 47 -17 170 -7 91 7 103 10 70
16 -22 4 -62 6 -90 4 -27 -2 -44 -1 -37 2 6 2 12 11 12 19 0 14 12 18 39 15 7
-2 10 3 6 9 -4 6 -16 8 -28 5 -20 -5 -20 -5 -4 5 15 9 22 8 37 -5 20 -18 40
-13 40 11 0 10 -11 14 -37 14 -28 0 -34 3 -25 12 9 9 24 8 67 -2 30 -7 55 -16
55 -20 0 -3 41 -19 90 -35 50 -16 87 -32 83 -36 -9 -8 -321 -34 -394 -33 -34
1 -59 10 -102 37 -56 36 -57 36 -114 26 -32 -6 -104 -9 -160 -7 -56 2 -100 1
-98 -2 2 -3 -22 -3 -53 1 -31 4 -67 8 -79 8 -13 1 -23 7 -23 16 0 17 11 20 25
6 14 -13 84 -18 87 -6 2 6 -17 11 -42 13 -51 3 -104 35 -76 45 9 4 16 2 16 -4
0 -5 11 -2 25 7 14 9 25 23 25 32 0 12 3 13 12 4 24 -24 31 -12 8 13 -13 14
-28 25 -34 24 -7 0 -6 -3 1 -5 7 -3 9 -12 6 -19 -4 -12 -7 -12 -20 0 -8 9 -33
15 -58 15 -49 0 -75 8 -75 22 0 6 6 8 13 5 14 -5 39 17 30 27 -11 11 -24 6
-17 -5 5 -8 -1 -10 -20 -7 -27 5 -27 5 -30 -59 -1 -10 5 -17 13 -15 7 1 19 -5
26 -15 11 -15 10 -20 -7 -35 -11 -10 -25 -15 -31 -11 -6 3 -7 1 -3 -5 4 -7 2
-12 -3 -12 -6 0 -11 13 -11 29 0 33 -15 49 -24 26 -14 -37 -22 -9 -13 49 12
86 0 102 -55 74 -47 -25 -47 -25 -49 -82 -2 -35 -6 -46 -18 -46 -29 1 -46 24
-47 65 -1 22 1 30 3 17 2 -12 9 -20 14 -17 14 9 11 45 -3 45 -9 0 -9 3 1 9 20
13 9 101 -15 118 -18 13 -18 15 -1 24 9 6 15 15 11 20 -3 6 4 18 16 26 l23 16
-24 13 c-13 7 -18 13 -12 14 14 0 13 46 -1 68 -4 7 -3 19 3 26 7 8 10 18 9 22
-2 5 7 19 20 32 12 12 22 18 22 12 0 -5 5 -10 11 -10 5 0 7 5 3 12 -4 6 -3 8
3 5 7 -5 8 -20 2 -47 -10 -44 4 -82 28 -73 8 3 13 -3 13 -16 0 -21 6 -24 50
-22 14 1 48 -7 77 -18 37 -13 54 -16 62 -8 6 6 11 8 11 4 0 -4 12 -1 28 7 36
19 156 48 184 45 27 -2 58 9 58 22 0 5 -8 9 -17 9 -21 0 -13 9 13 13 10 1 25
7 33 11 10 6 12 5 7 -2 -10 -17 1 -15 24 5 29 25 188 82 232 82 20 1 43 8 52
16 8 9 125 53 258 100 242 83 309 97 363 76z m-695 -46 c-7 -9 -15 -13 -19
-10 -3 3 1 10 9 15 21 14 24 12 10 -5z m-30 -10 c0 -2 -10 -9 -22 -15 -22 -11
-22 -10 -4 4 21 17 26 19 26 11z m-55 -35 c-3 -5 -12 -10 -18 -10 -7 0 -6 4 3
10 19 12 23 12 15 0z m955 -25 c11 -13 10 -14 -4 -9 -9 3 -16 10 -16 15 0 13
6 11 20 -6z m-29 -12 c12 -15 12 -16 -3 -10 -10 3 -20 2 -23 -3 -8 -13 -45
-13 -45 0 0 10 29 29 46 30 6 0 18 -8 25 -17z m100 -22 c-6 -10 -7 -21 -4 -25
3 -3 -5 -6 -18 -5 -13 0 -18 3 -11 6 6 2 10 9 6 14 -8 13 4 29 22 29 11 0 12
-4 5 -19z m-2411 -11 c0 -5 -4 -10 -10 -10 -5 0 -10 5 -10 10 0 6 5 10 10 10
6 0 10 -4 10 -10z m-306 -16 c9 -3 16 -13 16 -22 0 -8 -3 -12 -7 -9 -3 4 -13
1 -21 -6 -11 -8 -14 -8 -9 0 4 6 3 14 -3 18 -6 4 -8 11 -5 16 7 11 9 11 29 3z
m243 -44 c-1 -26 -6 -40 -15 -40 -9 0 -11 7 -6 23 4 12 7 30 6 40 0 9 3 17 8
17 5 0 8 -18 7 -40z m2336 23 c-3 -7 -6 -13 -8 -13 -2 0 -5 6 -8 13 -3 8 1 14
8 14 7 0 11 -6 8 -14z m-2123 -33 c0 -11 -4 -20 -9 -20 -5 0 -7 9 -4 20 3 11
7 20 9 20 2 0 4 -9 4 -20z m337 4 c-3 -3 -12 -4 -19 -1 -8 3 -5 6 6 6 11 1 17
-2 13 -5z m-10 -51 c-3 -10 -5 -4 -5 12 0 17 2 24 5 18 2 -7 2 -21 0 -30z
m476 18 c-3 -13 1 -21 14 -24 15 -4 14 -5 -4 -6 -16 -1 -23 5 -23 17 0 16 8
32 16 32 1 0 0 -9 -3 -19z m-696 -23 c-3 -8 -6 -5 -6 6 -1 11 2 17 5 13 3 -3
4 -12 1 -19z m-293 -10 c8 -33 7 -40 -4 -33 -5 3 -10 0 -10 -7 0 -10 -3 -9
-10 2 -6 9 -5 17 2 21 6 4 8 14 5 23 -4 9 -3 16 2 16 5 0 11 -10 15 -22z
m2189 15 c-7 -2 -21 -2 -30 0 -10 3 -4 5 12 5 17 0 24 -2 18 -5z m337 -34 c0
-6 -4 -7 -10 -4 -5 3 -10 11 -10 16 0 6 5 7 10 4 6 -3 10 -11 10 -16z m-2265
1 c4 -6 -2 -9 -14 -7 -29 4 -39 17 -13 17 11 0 24 -5 27 -10z m265 -32 c0 -44
-11 -45 -16 -1 -3 25 2 43 12 43 2 0 4 -19 4 -42z m-593 10 c-3 -8 -6 -5 -6 6
-1 11 2 17 5 13 3 -3 4 -12 1 -19z m203 -9 c0 -5 -4 -9 -10 -9 -5 0 -10 7 -10
16 0 8 5 12 10 9 6 -3 10 -10 10 -16z m261 12 c21 -8 18 -9 -16 -8 -22 0 -53
-2 -70 -6 -25 -5 -27 -4 -14 6 21 16 70 20 100 8z m74 -23 c-8 -67 -10 -73
-35 -79 l-25 -7 27 -1 c15 0 30 -6 34 -13 4 -7 3 -8 -4 -4 -7 4 -12 1 -12 -8
0 -23 -88 -25 -101 -4 -4 6 -20 8 -38 5 -17 -4 -31 -3 -31 2 0 10 -31 8 -49
-4 -9 -5 -12 -4 -7 3 3 5 0 13 -6 16 -7 3 10 5 37 5 95 -1 97 -1 90 21 -4 11
-2 20 4 20 6 0 11 -6 11 -12 0 -8 5 -6 10 4 7 11 21 15 45 14 19 -2 35 1 35 5
0 5 -17 10 -37 11 l-38 1 37 4 c28 3 37 9 42 29 9 35 16 30 11 -8z m-375 -12
c0 -3 -4 -8 -10 -11 -5 -3 -10 -1 -10 4 0 6 5 11 10 11 6 0 10 -2 10 -4z m203
-11 c15 3 27 1 27 -4 0 -4 -10 -8 -22 -7 -17 1 -22 -4 -20 -18 2 -11 -2 -16
-9 -14 -6 2 -13 17 -15 33 -2 17 0 24 4 18 5 -7 19 -10 35 -8z m1162 -5 c-3
-5 -11 -10 -16 -10 -6 0 -7 5 -4 10 3 6 11 10 16 10 6 0 7 -4 4 -10z m1055
-15 c0 -8 -4 -15 -8 -15 -5 0 -9 7 -9 15 0 8 4 15 9 15 4 0 8 -7 8 -15z
m-2190 -15 c0 -5 -4 -10 -10 -10 -5 0 -10 5 -10 10 0 6 5 10 10 10 6 0 10 -4
10 -10z m1040 -36 c0 -16 -5 -24 -12 -21 -20 6 -18 47 3 47 5 0 9 -12 9 -26z
m-759 7 c7 11 9 10 9 -3 0 -10 -7 -18 -15 -18 -8 0 -15 8 -14 18 0 12 2 13 6
3 5 -11 7 -11 14 0z m516 -57 c-3 -3 -12 -4 -19 -1 -8 3 -5 6 6 6 11 1 17 -2
13 -5z m-157 -196 c0 -19 -2 -20 -12 -6 -7 9 -20 18 -28 21 -8 3 -3 6 13 6 21
1 27 -3 27 -21z m909 -44 c10 -9 -35 -3 -49 6 -11 8 -7 9 15 4 17 -4 32 -8 34
-10z m-934 -4 c-3 -5 -14 -10 -23 -10 -15 0 -15 2 -2 10 20 13 33 13 25 0z
m-311 -16 c18 -17 22 -39 6 -29 -6 4 -10 -5 -10 -20 0 -14 6 -28 14 -31 8 -3
13 -11 10 -19 -3 -7 4 -15 16 -18 20 -5 21 -10 15 -57 -5 -34 -3 -55 5 -65 14
-17 4 -37 -18 -34 -27 4 -62 -11 -62 -27 0 -8 -7 -17 -15 -20 -8 -4 -15 -15
-15 -25 0 -11 -7 -19 -16 -19 -8 0 -12 5 -9 10 3 6 2 10 -4 10 -5 0 -15 -8
-21 -18 -15 -25 -1 34 16 67 8 14 14 29 14 33 0 3 16 40 35 81 19 41 35 77 35
80 0 3 -11 0 -25 -6 -14 -7 -25 -18 -25 -24 0 -7 -7 -13 -15 -13 -12 0 -13 4
-6 19 6 10 13 41 15 68 2 26 4 51 5 55 1 3 9 9 19 11 9 3 18 5 19 6 1 0 9 -6
17 -15z m1406 -15 c0 -6 -4 -7 -10 -4 -5 3 -10 11 -10 16 0 6 5 7 10 4 6 -3
10 -11 10 -16z m-440 6 c0 -2 -8 -8 -17 -14 -13 -6 -22 -5 -31 5 -11 12 -8 14
18 14 16 0 30 -2 30 -5z m-683 -35 c18 0 33 -2 33 -4 0 -2 2 -10 5 -18 4 -10
-7 -12 -50 -10 -44 3 -55 7 -55 21 0 24 11 34 24 21 5 -5 25 -10 43 -10z m143
-19 c30 -2 58 -8 61 -13 4 -6 15 -8 25 -4 9 4 86 9 170 13 152 6 153 6 186
-19 50 -38 94 -58 127 -58 16 0 32 -4 36 -10 3 -5 12 -7 20 -3 8 3 15 0 15 -7
0 -7 7 -5 17 5 16 16 17 16 25 -4 12 -34 198 -111 268 -111 16 0 48 -45 39
-54 -2 -3 -54 -10 -114 -17 -80 -10 -103 -15 -85 -21 16 -5 5 -6 -30 -3 -30 2
-91 -1 -135 -6 -102 -12 -675 -68 -777 -76 l-78 -6 0 27 c0 16 -5 26 -14 26
-8 0 -18 5 -22 12 -5 7 -1 9 13 6 22 -6 25 5 16 65 -3 24 -9 35 -16 31 -8 -5
-7 -2 1 7 6 7 13 22 13 34 1 14 4 11 9 -10 5 -21 8 -1 10 65 1 52 4 89 7 82 4
-10 10 -9 25 4 15 15 21 16 27 5 13 -20 65 8 69 37 3 17 7 20 20 14 9 -5 42
-10 72 -11z m1220 -134 c36 -14 79 -32 95 -42 l30 -17 -30 7 c-16 3 -50 11
-75 16 -25 6 -61 11 -80 13 -19 2 -53 12 -75 23 -43 22 -154 59 -195 66 -14 2
-1 5 28 6 28 0 52 5 52 11 0 8 84 -19 250 -83z m-420 66 c0 -5 -5 -15 -10 -23
-8 -12 -10 -11 -10 8 0 12 5 22 10 22 6 0 10 -3 10 -7z m620 -47 c0 -3 -4 -8
-10 -11 -5 -3 -10 -1 -10 4 0 6 5 11 10 11 6 0 10 -2 10 -4z m-2390 -19 c0 -2
-10 -12 -22 -23 l-23 -19 19 23 c18 21 26 27 26 19z m-36 -76 c-10 -10 -21
-16 -24 -14 -3 3 4 11 14 19 28 20 33 17 10 -5z m0 -45 c-7 -17 -34 -22 -34
-6 0 6 7 10 15 10 8 0 15 5 15 12 0 6 2 9 5 6 3 -3 3 -13 -1 -22z m16 -60 c0
-10 -32 -36 -43 -36 -7 0 -1 9 13 20 26 21 30 23 30 16z m1630 -20 c0 -2 -9
-6 -20 -9 -11 -3 -18 -1 -14 4 5 9 34 13 34 5z m215 -17 c5 -5 -19 -9 -63 -9
-40 0 -72 4 -72 9 0 21 113 21 135 0z m-1805 -55 c0 -8 -5 -12 -10 -9 -6 4 -8
11 -5 16 9 14 15 11 15 -7z"/>
<path d="M2220 1265 c-14 -8 -20 -14 -15 -14 6 0 21 6 35 14 14 8 21 14 15 14
-5 0 -21 -6 -35 -14z"/>
<path d="M2160 1240 c-8 -5 -10 -10 -5 -10 6 0 17 5 25 10 8 5 11 10 5 10 -5
0 -17 -5 -25 -10z"/>
<path d="M1446 1074 c-4 -9 -4 -19 -1 -22 2 -3 7 3 11 12 4 9 4 19 1 22 -2 3
-7 -3 -11 -12z"/>
<path d="M1580 1050 c-9 -6 -10 -10 -3 -10 6 0 15 5 18 10 8 12 4 12 -15 0z"/>
<path d="M1739 1293 c-13 -16 -12 -17 4 -4 9 7 17 15 17 17 0 8 -8 3 -21 -13z"/>
<path d="M1102 1000 c0 -14 2 -19 5 -12 2 6 2 18 0 25 -3 6 -5 1 -5 -13z"/>
<path d="M1920 892 c0 -5 7 -9 15 -9 8 0 12 4 9 9 -3 4 -9 8 -15 8 -5 0 -9 -4
-9 -8z"/>
<path d="M1330 870 c0 -5 5 -10 10 -10 6 0 10 5 10 10 0 6 -4 10 -10 10 -5 0
-10 -4 -10 -10z"/>
<path d="M1835 735 c-25 -11 -27 -14 -9 -14 12 -1 27 6 34 14 15 18 14 18 -25
0z"/>
<path d="M1898 723 c-21 -5 -24 -23 -4 -23 8 0 20 -2 28 -5 7 -3 20 0 28 5 13
9 13 11 0 20 -16 10 -24 11 -52 3z"/>
<path d="M2201 705 c-2 -25 -4 -27 -10 -10 -7 16 -9 13 -15 -18 -4 -21 -11
-35 -16 -32 -6 3 -7 -1 -4 -9 6 -16 78 -25 116 -15 l23 6 -25 10 c-33 14 -57
42 -63 73 -4 23 -4 23 -6 -5z"/>
<path d="M1452 708 c6 -17 38 -19 38 -2 0 8 -9 14 -21 14 -11 0 -19 -5 -17
-12z"/>
<path d="M1508 682 c-2 -31 0 -38 14 -38 14 0 18 9 18 38 0 26 -4 38 -14 38
-9 0 -15 -14 -18 -38z m19 -4 c-3 -8 -6 -5 -6 6 -1 11 2 17 5 13 3 -3 4 -12 1
-19z"/>
<path d="M1630 676 c0 -36 17 -50 48 -40 14 5 15 4 2 -5 -13 -9 -13 -11 3 -11
12 0 17 8 17 30 0 23 -7 33 -30 45 -39 20 -40 20 -40 -19z"/>
<path d="M1935 651 c-3 -5 -1 -12 5 -16 5 -3 10 1 10 9 0 18 -6 21 -15 7z"/>
<path d="M1860 633 c0 -13 5 -23 10 -23 13 0 13 11 0 30 -8 12 -10 11 -10 -7z"/>
<path d="M2060 614 l-45 -12 47 -1 c26 -1 49 3 53 8 10 17 -9 18 -55 5z"/>
<path d="M1923 613 c9 -2 23 -2 30 0 6 3 -1 5 -18 5 -16 0 -22 -2 -12 -5z"/>
<path d="M1640 600 c-12 -8 -9 -9 12 -8 15 1 24 6 22 10 -7 10 -16 10 -34 -2z"/>
<path d="M1899 587 c5 -5 19 -7 32 -5 20 3 19 5 -9 9 -20 3 -29 2 -23 -4z"/>
<path d="M1970 590 c0 -5 5 -10 11 -10 5 0 7 5 4 10 -3 6 -8 10 -11 10 -2 0
-4 -4 -4 -10z"/>
<path d="M2360 566 c0 -2 11 -6 25 -8 14 -3 25 -1 25 3 0 5 -11 9 -25 9 -14 0
-25 -2 -25 -4z"/>
<path d="M1499 533 c20 -34 41 -57 47 -51 7 8 -36 68 -48 68 -5 0 -4 -8 1 -17z"/>
<path d="M2158 473 c7 -3 16 -2 19 1 4 3 -2 6 -13 5 -11 0 -14 -3 -6 -6z"/>
<path d="M1000 479 c0 -5 5 -7 10 -4 6 3 10 8 10 11 0 2 -4 4 -10 4 -5 0 -10
-5 -10 -11z"/>
<path d="M1398 433 c6 -2 18 -2 25 0 6 3 1 5 -13 5 -14 0 -19 -2 -12 -5z"/>
<path d="M1448 415 c4 -25 17 -33 24 -15 2 5 13 11 25 13 34 5 37 14 6 22 -17
4 -29 2 -31 -5 -3 -8 -8 -8 -17 0 -9 8 -11 4 -7 -15z"/>
<path d="M1343 388 c-10 -3 -31 -7 -46 -7 -24 -1 -28 -5 -25 -23 3 -20 8 -22
48 -19 25 1 53 7 62 12 12 6 18 6 18 -1 0 -5 6 -9 13 -7 6 1 11 -4 9 -12 -2
-11 0 -12 10 -4 23 20 89 27 99 12 17 -27 9 -30 -61 -28 -73 2 -95 -6 -81 -30
12 -20 167 -2 163 18 -2 8 3 18 10 23 10 6 7 13 -12 28 -27 21 -12 28 18 9 24
-15 115 -3 109 14 -5 15 -141 13 -182 -3 -21 -8 -30 -7 -39 4 -12 16 -86 25
-113 14z"/>
<path d="M350 750 c-25 -16 26 -20 102 -9 43 6 78 12 78 13 0 6 -171 2 -180
-4z"/>
<path d="M755 719 c-26 -7 -30 -13 -31 -47 l-1 -38 40 5 c41 6 41 7 44 49 2
45 -1 46 -52 31z"/>
<path d="M620 681 l-65 -17 3 -48 3 -49 -53 7 c-29 4 -55 11 -56 17 -2 5 -8 7
-13 3 -5 -3 -9 0 -9 5 0 11 24 15 65 12 17 -2 16 0 -5 12 -16 9 -29 10 -37 4
-7 -5 -43 -8 -80 -7 -109 3 -135 1 -131 -12 2 -6 15 -15 29 -20 23 -8 23 -8 4
8 -19 15 -19 15 10 10 17 -2 41 -5 55 -6 l25 -2 -25 -8 c-21 -7 -18 -8 20 -9
75 -2 78 -16 8 -36 -49 -13 -81 -16 -145 -11 -83 7 -124 -6 -55 -18 63 -10
146 -7 198 8 27 8 69 18 94 21 25 4 58 8 73 11 17 2 26 0 22 -6 -9 -15 6 -12
75 15 76 30 91 42 70 55 -10 7 -11 10 -2 10 7 0 12 14 12 35 0 40 1 40 -90 16z
m47 -57 c-3 -3 -12 -4 -19 -1 -8 3 -5 6 6 6 11 1 17 -2 13 -5z"/>
<path d="M38 613 c6 -2 18 -2 25 0 6 3 1 5 -13 5 -14 0 -19 -2 -12 -5z"/>
<path d="M127 614 c-3 -3 -3 -12 0 -20 3 -8 -5 -16 -21 -20 -14 -3 -26 -13
-26 -21 0 -15 -20 -14 -64 3 -12 5 -16 0 -16 -21 0 -26 2 -27 38 -20 20 4 43
11 50 17 6 6 12 7 12 2 0 -4 6 -1 13 8 6 9 38 21 70 28 60 12 76 29 30 31 -16
1 -31 1 -35 0 -5 0 -8 4 -8 11 0 9 -3 9 -12 0 -7 -7 -17 -12 -22 -12 -6 0 -4
5 4 10 8 5 10 10 4 10 -6 0 -13 -3 -17 -6z"/>
<path d="M48 563 c7 -3 16 -2 19 1 4 3 -2 6 -13 5 -11 0 -14 -3 -6 -6z"/>
<path d="M210 560 c0 -5 5 -10 11 -10 5 0 7 5 4 10 -3 6 -8 10 -11 10 -2 0 -4
-4 -4 -10z"/>
<path d="M250 560 c0 -5 9 -10 21 -10 11 0 17 5 14 10 -3 6 -13 10 -21 10 -8
0 -14 -4 -14 -10z"/>
<path d="M306 562 c-3 -5 9 -9 27 -9 26 -1 28 1 12 7 -27 11 -33 12 -39 2z"/>
<path d="M40 306 c0 -9 40 -13 46 -5 3 5 -6 9 -20 9 -14 0 -26 -2 -26 -4z"/>
</g>
</svg>
